<svg height='100px' width='100px'  fill="#000000" xmlns="http://www.w3.org/2000/svg" xmlns:xlink="http://www.w3.org/1999/xlink" version="1.1" x="0px" y="0px" viewBox="0 0 60 60" style="enable-background:new 0 0 60 60;" xml:space="preserve"><title>38 -Dock Lifter- (Solid)</title><desc>Created with Sketch.</desc><g><g transform="translate(-958.000000, -709.000000)"><g transform="translate(958.000000, 709.000000)"><polygon points="4,60 12,60 12,49 4,49    "></polygon><polygon points="48,60 56,60 56,49 48,49    "></polygon><path d="M59,5h-3V2.3C56,1,55,0,53.7,0h-3.3C49,0,48,1,48,2.3V5H12V2.3C12,1,11,0,9.7,0H6.3C5,0,4,1,4,2.3V5H1C0.4,5,0,5.4,0,6v5     c0,0.6,0.4,1,1,1h3v35h8V16h16c-0.7,1.2-1,2.5-1,3.8V21c0,0.6,0.4,1,1,1h1v2c0,0.6,0.4,1,1,1c1.1,0,2,0.9,2,2s-0.9,2-2,2     c-0.3,0-0.6,0.1-0.8,0.4c0,0,0,0,0,0L23.5,37H21c-0.6,0-1,0.4-1,1v8c0,0.6,0.4,1,1,1h18c0.6,0,1-0.4,1-1v-8c0-0.6-0.4-1-1-1h-2.5     l-4.8-6.4c1.4-0.6,2.3-2,2.3-3.6c0-1.9-1.3-3.4-3-3.9V22h1c0.6,0,1-0.4,1-1v-1.2c0-1.4-0.4-2.7-1-3.8h16v31h8V12h3     c0.6,0,1-0.4,1-1V6C60,5.4,59.6,5,59,5z M4,10H2V7h2V10z M34,37h-8l4-5.3L34,37z M48,10H12V7h36V10z M58,10h-2V7h2V10z"></path></g></g></g></svg>